<?xml version="1.0" encoding="utf-8"?>
<svg version="1.1" xmlns:xlink="http://www.w3.org/1999/xlink" width="36px" height="29px" xmlns="http://www.w3.org/2000/svg">
  <g transform="matrix(1 0 0 1 -8 -263 )">
    <path d="M 6.9609375 20.3185369318182  C 7.46316964285714 19.8036221590909  7.71428571428571 19.1822916666667  7.71428571428571 18.4545454545455  C 7.71428571428571 17.7267992424242  7.46316964285714 17.10546875  6.9609375 16.5905539772727  C 6.45870535714286 16.0756392045455  5.85267857142857 15.8181818181818  5.14285714285714 15.8181818181818  C 4.43303571428571 15.8181818181818  3.82700892857143 16.0756392045455  3.32477678571429 16.5905539772727  C 2.82254464285714 17.10546875  2.57142857142857 17.7267992424242  2.57142857142857 18.4545454545455  C 2.57142857142857 19.1822916666667  2.82254464285714 19.8036221590909  3.32477678571429 20.3185369318182  C 3.82700892857143 20.8334517045455  4.43303571428571 21.0909090909091  5.14285714285714 21.0909090909091  C 5.85267857142857 21.0909090909091  6.45870535714286 20.8334517045455  6.9609375 20.3185369318182  Z M 10.8180803571429 11.0912642045455  C 11.3203125 10.5763494318182  11.5714285714286 9.95501893939394  11.5714285714286 9.22727272727273  C 11.5714285714286 8.49952651515151  11.3203125 7.87819602272727  10.8180803571429 7.36328125  C 10.3158482142857 6.84836647727273  9.70982142857143 6.59090909090909  9 6.59090909090909  C 8.29017857142857 6.59090909090909  7.68415178571429 6.84836647727273  7.18191964285714 7.36328125  C 6.6796875 7.87819602272727  6.42857142857143 8.49952651515151  6.42857142857143 9.22727272727273  C 6.42857142857143 9.95501893939394  6.6796875 10.5763494318182  7.18191964285714 11.0912642045455  C 7.68415178571429 11.6061789772727  8.29017857142857 11.8636363636364  9 11.8636363636364  C 9.70982142857143 11.8636363636364  10.3158482142857 11.6061789772727  10.8180803571429 11.0912642045455  Z M 21.6160714285714 21.0085227272727  C 21.3214285714286 20.2258522727273  20.8392857142857 19.6010890151515  20.1696428571429 19.1342329545455  L 22.1986607142857 11.2663352272727  C 22.2790178571429 10.9093276515151  22.2287946428571 10.5763494318182  22.0479910714286 10.2674005681818  C 21.8671875 9.95845170454545  21.609375 9.75591856060606  21.2745535714286 9.65980113636364  C 20.9397321428571 9.56368371212121  20.6183035714286 9.60830965909091  20.3102678571429 9.79367897727273  C 20.0022321428571 9.97904829545455  19.8013392857143 10.2502367424242  19.7075892857143 10.6072443181818  L 17.6785714285714 18.4751420454545  C 16.875 18.5437973484848  16.1584821428571 18.8424479166667  15.5290178571429 19.37109375  C 14.8995535714286 19.8997395833333  14.4776785714286 20.5759943181818  14.2633928571429 21.3998579545455  C 13.9955357142857 22.4571496212121  14.1294642857143 23.4595170454545  14.6651785714286 24.4069602272727  C 15.2008928571429 25.3544034090909  15.984375 25.9654356060606  17.015625 26.2400568181818  C 18.046875 26.514678030303  19.0245535714286 26.3773674242424  19.9486607142857 25.828125  C 20.8727678571429 25.2788825757576  21.46875 24.475615530303  21.7366071428571 23.4183238636364  C 21.9508928571429 22.5944602272727  21.9107142857143 21.7911931818182  21.6160714285714 21.0085227272727  Z M 32.6752232142857 20.3185369318182  C 33.1774553571429 19.8036221590909  33.4285714285714 19.1822916666667  33.4285714285714 18.4545454545455  C 33.4285714285714 17.7267992424242  33.1774553571429 17.10546875  32.6752232142857 16.5905539772727  C 32.1729910714286 16.0756392045455  31.5669642857143 15.8181818181818  30.8571428571429 15.8181818181818  C 30.1473214285714 15.8181818181818  29.5412946428571 16.0756392045455  29.0390625 16.5905539772727  C 28.5368303571429 17.10546875  28.2857142857143 17.7267992424242  28.2857142857143 18.4545454545455  C 28.2857142857143 19.1822916666667  28.5368303571429 19.8036221590909  29.0390625 20.3185369318182  C 29.5412946428571 20.8334517045455  30.1473214285714 21.0909090909091  30.8571428571429 21.0909090909091  C 31.5669642857143 21.0909090909091  32.1729910714286 20.8334517045455  32.6752232142857 20.3185369318182  Z M 19.8180803571429 7.13671875  C 20.3203125 6.62180397727273  20.5714285714286 6.00047348484848  20.5714285714286 5.27272727272727  C 20.5714285714286 4.54498106060606  20.3203125 3.92365056818182  19.8180803571429 3.40873579545455  C 19.3158482142857 2.89382102272727  18.7098214285714 2.63636363636364  18 2.63636363636364  C 17.2901785714286 2.63636363636364  16.6841517857143 2.89382102272727  16.1819196428571 3.40873579545455  C 15.6796875 3.92365056818182  15.4285714285714 4.54498106060606  15.4285714285714 5.27272727272727  C 15.4285714285714 6.00047348484848  15.6796875 6.62180397727273  16.1819196428571 7.13671875  C 16.6841517857143 7.65163352272727  17.2901785714286 7.90909090909091  18 7.90909090909091  C 18.7098214285714 7.90909090909091  19.3158482142857 7.65163352272727  19.8180803571429 7.13671875  Z M 28.8180803571429 11.0912642045455  C 29.3203125 10.5763494318182  29.5714285714286 9.95501893939394  29.5714285714286 9.22727272727273  C 29.5714285714286 8.49952651515151  29.3203125 7.87819602272727  28.8180803571429 7.36328125  C 28.3158482142857 6.84836647727273  27.7098214285714 6.59090909090909  27 6.59090909090909  C 26.2901785714286 6.59090909090909  25.6841517857143 6.84836647727273  25.1819196428571 7.36328125  C 24.6796875 7.87819602272727  24.4285714285714 8.49952651515151  24.4285714285714 9.22727272727273  C 24.4285714285714 9.95501893939394  24.6796875 10.5763494318182  25.1819196428571 11.0912642045455  C 25.6841517857143 11.6061789772727  26.2901785714286 11.8636363636364  27 11.8636363636364  C 27.7098214285714 11.8636363636364  28.3158482142857 11.6061789772727  28.8180803571429 11.0912642045455  Z M 34.5736607142857 11.2869318181818  C 35.5245535714286 13.5662878787879  36 15.9554924242424  36 18.4545454545455  C 36 22.0383522727273  35.0558035714286 25.3544034090909  33.1674107142857 28.4026988636364  C 32.9129464285714 28.8008996212121  32.5513392857143 29  32.0825892857143 29  L 3.91741071428571 29  C 3.44866071428571 29  3.08705357142857 28.8008996212121  2.83258928571429 28.4026988636364  C 0.944196428571429 25.368134469697  0 22.0520833333333  0 18.4545454545455  C 0 15.9554924242424  0.475446428571428 13.5662878787879  1.42633928571429 11.2869318181818  C 2.37723214285714 9.00757575757576  3.65625 7.04403409090909  5.26339285714286 5.39630681818182  C 6.87053571428571 3.74857954545455  8.78571428571429 2.43726325757576  11.0089285714286 1.46235795454545  C 13.2321428571429 0.487452651515149  15.5625 0  18 0  C 20.4375 0  22.7678571428571 0.487452651515149  24.9910714285714 1.46235795454545  C 27.2142857142857 2.43726325757576  29.1294642857143 3.74857954545455  30.7366071428571 5.39630681818182  C 32.34375 7.04403409090909  33.6227678571429 9.00757575757576  34.5736607142857 11.2869318181818  Z " fill-rule="nonzero" fill="#0000ff" stroke="none" transform="matrix(1 0 0 1 8 263 )" />
  </g>
</svg>