<?xml version="1.0" encoding="utf-8"?>
<svg version="1.1" xmlns:xlink="http://www.w3.org/1999/xlink" width="26px" height="26px" xmlns="http://www.w3.org/2000/svg">
  <g transform="matrix(1 0 0 1 -129 -653 )">
    <path d="M 5.50130208333333 10.5189732142857  C 7.82595486111111 10.9348958333333  10.3255208333333 11.1428571428571  13 11.1428571428571  C 15.6744791666667 11.1428571428571  18.1740451388889 10.9348958333333  20.4986979166667 10.5189732142857  C 22.8233506944444 10.1030505952381  24.6571180555556 9.48883928571428  26 8.67633928571428  L 26 11.1428571428571  C 26 11.8102678571429  25.4188368055556 12.4293154761905  24.2565104166667 13  C 23.0941840277778 13.5706845238095  21.5143229166667 14.0228794642857  19.5169270833333 14.3565848214286  C 17.51953125 14.6902901785714  15.3472222222222 14.8571428571429  13 14.8571428571429  C 10.6527777777778 14.8571428571429  8.48046875 14.6902901785714  6.48307291666667 14.3565848214286  C 4.48567708333333 14.0228794642857  2.90581597222222 13.5706845238095  1.74348958333333 13  C 0.581163194444444 12.4293154761905  0 11.8102678571429  0 11.1428571428571  L 0 8.67633928571428  C 1.34288194444444 9.48883928571428  3.17664930555556 10.1030505952381  5.50130208333333 10.5189732142857  Z M 5.50130208333333 21.6618303571429  C 7.82595486111111 22.0777529761905  10.3255208333333 22.2857142857143  13 22.2857142857143  C 15.6744791666667 22.2857142857143  18.1740451388889 22.0777529761905  20.4986979166667 21.6618303571429  C 22.8233506944444 21.2459077380952  24.6571180555556 20.6316964285714  26 19.8191964285714  L 26 22.2857142857143  C 26 22.953125  25.4188368055556 23.5721726190476  24.2565104166667 24.1428571428571  C 23.0941840277778 24.7135416666667  21.5143229166667 25.1657366071429  19.5169270833333 25.4994419642857  C 17.51953125 25.8331473214286  15.3472222222222 26  13 26  C 10.6527777777778 26  8.48046875 25.8331473214286  6.48307291666667 25.4994419642857  C 4.48567708333333 25.1657366071429  2.90581597222222 24.7135416666667  1.74348958333333 24.1428571428571  C 0.581163194444444 23.5721726190476  0 22.953125  0 22.2857142857143  L 0 19.8191964285714  C 1.34288194444444 20.6316964285714  3.17664930555556 21.2459077380952  5.50130208333333 21.6618303571429  Z M 5.50130208333333 16.0904017857143  C 7.82595486111111 16.5063244047619  10.3255208333333 16.7142857142857  13 16.7142857142857  C 15.6744791666667 16.7142857142857  18.1740451388889 16.5063244047619  20.4986979166667 16.0904017857143  C 22.8233506944444 15.6744791666667  24.6571180555556 15.0602678571429  26 14.2477678571429  L 26 16.7142857142857  C 26 17.3816964285714  25.4188368055556 18.000744047619  24.2565104166667 18.5714285714286  C 23.0941840277778 19.1421130952381  21.5143229166667 19.5943080357143  19.5169270833333 19.9280133928571  C 17.51953125 20.26171875  15.3472222222222 20.4285714285714  13 20.4285714285714  C 10.6527777777778 20.4285714285714  8.48046875 20.26171875  6.48307291666667 19.9280133928571  C 4.48567708333333 19.5943080357143  2.90581597222222 19.1421130952381  1.74348958333333 18.5714285714286  C 0.581163194444444 18.000744047619  0 17.3816964285714  0 16.7142857142857  L 0 14.2477678571429  C 1.34288194444444 15.0602678571429  3.17664930555556 15.6744791666667  5.50130208333333 16.0904017857143  Z M 6.48307291666667 0.500558035714284  C 8.48046875 0.166852678571428  10.6527777777778 0  13 0  C 15.3472222222222 0  17.51953125 0.166852678571428  19.5169270833333 0.500558035714284  C 21.5143229166667 0.834263392857144  23.0941840277778 1.28645833333333  24.2565104166667 1.85714285714286  C 25.4188368055556 2.42782738095238  26 3.046875  26 3.71428571428572  L 26 5.57142857142857  C 26 6.23883928571428  25.4188368055556 6.8578869047619  24.2565104166667 7.42857142857143  C 23.0941840277778 7.99925595238095  21.5143229166667 8.45145089285714  19.5169270833333 8.78515625  C 17.51953125 9.11886160714286  15.3472222222222 9.28571428571428  13 9.28571428571428  C 10.6527777777778 9.28571428571428  8.48046875 9.11886160714286  6.48307291666667 8.78515625  C 4.48567708333333 8.45145089285714  2.90581597222222 7.99925595238095  1.74348958333333 7.42857142857143  C 0.581163194444444 6.8578869047619  0 6.23883928571428  0 5.57142857142857  L 0 3.71428571428572  C 0 3.046875  0.581163194444444 2.42782738095238  1.74348958333333 1.85714285714286  C 2.90581597222222 1.28645833333333  4.48567708333333 0.834263392857144  6.48307291666667 0.500558035714284  Z " fill-rule="nonzero" fill="#0000bf" stroke="none" transform="matrix(1 0 0 1 129 653 )" />
  </g>
</svg>