<?xml version="1.0" encoding="utf-8"?>
<svg version="1.1" xmlns:xlink="http://www.w3.org/1999/xlink" width="33px" height="25px" xmlns="http://www.w3.org/2000/svg">
  <g transform="matrix(1 0 0 1 -204 -661 )">
    <path d="M 6.380859375 17.5159801136364  C 6.84123883928571 17.0720880681818  7.07142857142857 16.5364583333333  7.07142857142857 15.9090909090909  C 7.07142857142857 15.2817234848485  6.84123883928571 14.74609375  6.380859375 14.3022017045455  C 5.92047991071429 13.8583096590909  5.36495535714286 13.6363636363636  4.71428571428571 13.6363636363636  C 4.06361607142857 13.6363636363636  3.50809151785714 13.8583096590909  3.04771205357143 14.3022017045455  C 2.58733258928571 14.74609375  2.35714285714286 15.2817234848485  2.35714285714286 15.9090909090909  C 2.35714285714286 16.5364583333333  2.58733258928571 17.0720880681818  3.04771205357143 17.5159801136364  C 3.50809151785714 17.9598721590909  4.06361607142857 18.1818181818182  4.71428571428571 18.1818181818182  C 5.36495535714286 18.1818181818182  5.92047991071429 17.9598721590909  6.380859375 17.5159801136364  Z M 9.91657366071429 9.56143465909091  C 10.376953125 9.11754261363637  10.6071428571429 8.58191287878788  10.6071428571429 7.95454545454546  C 10.6071428571429 7.32717803030303  10.376953125 6.79154829545454  9.91657366071429 6.34765625  C 9.45619419642857 5.90376420454546  8.90066964285714 5.68181818181818  8.25 5.68181818181818  C 7.59933035714286 5.68181818181818  7.04380580357143 5.90376420454546  6.58342633928571 6.34765625  C 6.123046875 6.79154829545454  5.89285714285714 7.32717803030303  5.89285714285714 7.95454545454546  C 5.89285714285714 8.58191287878788  6.123046875 9.11754261363637  6.58342633928571 9.56143465909091  C 7.04380580357143 10.0053267045455  7.59933035714286 10.2272727272727  8.25 10.2272727272727  C 8.90066964285714 10.2272727272727  9.45619419642857 10.0053267045455  9.91657366071429 9.56143465909091  Z M 19.8147321428571 18.1107954545455  C 19.5446428571429 17.4360795454545  19.1026785714286 16.897490530303  18.4888392857143 16.4950284090909  L 20.3487723214286 9.71235795454546  C 20.4224330357143 9.4045928030303  20.3763950892857 9.11754261363637  20.2106584821429 8.85120738636363  C 20.044921875 8.58487215909091  19.80859375 8.41027462121212  19.5016741071429 8.32741477272727  C 19.1947544642857 8.24455492424242  18.9001116071429 8.28302556818182  18.6177455357143 8.44282670454546  C 18.3353794642857 8.60262784090909  18.1512276785714 8.83641098484848  18.0652901785714 9.14417613636363  L 16.2053571428571 15.9268465909091  C 15.46875 15.9860321969697  14.8119419642857 16.2434895833333  14.2349330357143 16.69921875  C 13.6579241071429 17.1549479166667  13.2712053571429 17.7379261363636  13.0747767857143 18.4481534090909  C 12.8292410714286 19.3596117424242  12.9520089285714 20.2237215909091  13.4430803571429 21.0404829545455  C 13.9341517857143 21.8572443181818  14.65234375 22.3839962121212  15.59765625 22.6207386363636  C 16.54296875 22.8574810606061  17.4391741071429 22.7391098484849  18.2862723214286 22.265625  C 19.1333705357143 21.7921401515151  19.6796875 21.0996685606061  19.9252232142857 20.1882102272727  C 20.1216517857143 19.4779829545455  20.0848214285714 18.7855113636364  19.8147321428571 18.1107954545455  Z M 29.9522879464286 17.5159801136364  C 30.4126674107143 17.0720880681818  30.6428571428571 16.5364583333333  30.6428571428571 15.9090909090909  C 30.6428571428571 15.2817234848485  30.4126674107143 14.74609375  29.9522879464286 14.3022017045455  C 29.4919084821429 13.8583096590909  28.9363839285714 13.6363636363636  28.2857142857143 13.6363636363636  C 27.6350446428571 13.6363636363636  27.0795200892857 13.8583096590909  26.619140625 14.3022017045455  C 26.1587611607143 14.74609375  25.9285714285714 15.2817234848485  25.9285714285714 15.9090909090909  C 25.9285714285714 16.5364583333333  26.1587611607143 17.0720880681818  26.619140625 17.5159801136364  C 27.0795200892857 17.9598721590909  27.6350446428571 18.1818181818182  28.2857142857143 18.1818181818182  C 28.9363839285714 18.1818181818182  29.4919084821429 17.9598721590909  29.9522879464286 17.5159801136364  Z M 18.1665736607143 6.15234375  C 18.626953125 5.70845170454546  18.8571428571429 5.17282196969697  18.8571428571429 4.54545454545454  C 18.8571428571429 3.91808712121212  18.626953125 3.38245738636364  18.1665736607143 2.93856534090909  C 17.7061941964286 2.49467329545454  17.1506696428571 2.27272727272727  16.5 2.27272727272727  C 15.8493303571429 2.27272727272727  15.2938058035714 2.49467329545454  14.8334263392857 2.93856534090909  C 14.373046875 3.38245738636364  14.1428571428571 3.91808712121212  14.1428571428571 4.54545454545454  C 14.1428571428571 5.17282196969697  14.373046875 5.70845170454546  14.8334263392857 6.15234375  C 15.2938058035714 6.59623579545454  15.8493303571429 6.81818181818182  16.5 6.81818181818182  C 17.1506696428571 6.81818181818182  17.7061941964286 6.59623579545454  18.1665736607143 6.15234375  Z M 26.4165736607143 9.56143465909091  C 26.876953125 9.11754261363637  27.1071428571429 8.58191287878788  27.1071428571429 7.95454545454546  C 27.1071428571429 7.32717803030303  26.876953125 6.79154829545454  26.4165736607143 6.34765625  C 25.9561941964286 5.90376420454546  25.4006696428571 5.68181818181818  24.75 5.68181818181818  C 24.0993303571429 5.68181818181818  23.5438058035714 5.90376420454546  23.0834263392857 6.34765625  C 22.623046875 6.79154829545454  22.3928571428571 7.32717803030303  22.3928571428571 7.95454545454546  C 22.3928571428571 8.58191287878788  22.623046875 9.11754261363637  23.0834263392857 9.56143465909091  C 23.5438058035714 10.0053267045455  24.0993303571429 10.2272727272727  24.75 10.2272727272727  C 25.4006696428571 10.2272727272727  25.9561941964286 10.0053267045455  26.4165736607143 9.56143465909091  Z M 31.6925223214286 9.73011363636363  C 32.5641741071429 11.6950757575758  33 13.7547348484848  33 15.9090909090909  C 33 18.9985795454545  32.1344866071429 21.8572443181818  30.4034598214286 24.4850852272727  C 30.1702008928571 24.8283617424242  29.8387276785714 25  29.4090401785714 25  L 3.59095982142857 25  C 3.16127232142857 25  2.82979910714286 24.8283617424242  2.59654017857143 24.4850852272727  C 0.865513392857143 21.8690814393939  0 19.0104166666667  0 15.9090909090909  C 0 13.7547348484848  0.435825892857143 11.6950757575758  1.30747767857143 9.73011363636363  C 2.17912946428571 7.76515151515151  3.3515625 6.07244318181818  4.82477678571429 4.65198863636363  C 6.29799107142857 3.23153409090909  8.05357142857143 2.10108901515151  10.0915178571429 1.26065340909091  C 12.1294642857143 0.420217803030301  14.265625 0  16.5 0  C 18.734375 0  20.8705357142857 0.420217803030301  22.9084821428571 1.26065340909091  C 24.9464285714286 2.10108901515151  26.7020089285714 3.23153409090909  28.1752232142857 4.65198863636363  C 29.6484375 6.07244318181818  30.8208705357143 7.76515151515151  31.6925223214286 9.73011363636363  Z " fill-rule="nonzero" fill="#000000" stroke="none" transform="matrix(1 0 0 1 204 661 )" />
  </g>
</svg>