<?xml version="1.0" encoding="utf-8"?>
<svg version="1.1" xmlns:xlink="http://www.w3.org/1999/xlink" width="33px" height="33px" xmlns="http://www.w3.org/2000/svg">
  <g transform="matrix(1 0 0 1 -9 -180 )">
    <path d="M 6.982421875 13.3510044642857  C 9.93294270833333 13.87890625  13.10546875 14.1428571428571  16.5 14.1428571428571  C 19.89453125 14.1428571428571  23.0670572916667 13.87890625  26.017578125 13.3510044642857  C 28.9680989583333 12.8231026785714  31.2955729166667 12.0435267857143  33 11.0122767857143  L 33 14.1428571428571  C 33 14.9899553571429  32.2623697916667 15.7756696428571  30.787109375 16.5  C 29.3118489583333 17.2243303571429  27.306640625 17.7982700892857  24.771484375 18.2218191964286  C 22.236328125 18.6453683035714  19.4791666666667 18.8571428571429  16.5 18.8571428571429  C 13.5208333333333 18.8571428571429  10.763671875 18.6453683035714  8.228515625 18.2218191964286  C 5.693359375 17.7982700892857  3.68815104166667 17.2243303571429  2.212890625 16.5  C 0.737630208333333 15.7756696428571  0 14.9899553571429  0 14.1428571428571  L 0 11.0122767857143  C 1.70442708333333 12.0435267857143  4.03190104166667 12.8231026785714  6.982421875 13.3510044642857  Z M 6.982421875 27.4938616071429  C 9.93294270833333 28.0217633928571  13.10546875 28.2857142857143  16.5 28.2857142857143  C 19.89453125 28.2857142857143  23.0670572916667 28.0217633928571  26.017578125 27.4938616071429  C 28.9680989583333 26.9659598214286  31.2955729166667 26.1863839285714  33 25.1551339285714  L 33 28.2857142857143  C 33 29.1328125  32.2623697916667 29.9185267857143  30.787109375 30.6428571428571  C 29.3118489583333 31.3671875  27.306640625 31.9411272321429  24.771484375 32.3646763392857  C 22.236328125 32.7882254464286  19.4791666666667 33  16.5 33  C 13.5208333333333 33  10.763671875 32.7882254464286  8.228515625 32.3646763392857  C 5.693359375 31.9411272321429  3.68815104166667 31.3671875  2.212890625 30.6428571428571  C 0.737630208333333 29.9185267857143  0 29.1328125  0 28.2857142857143  L 0 25.1551339285714  C 1.70442708333333 26.1863839285714  4.03190104166667 26.9659598214286  6.982421875 27.4938616071429  Z M 6.982421875 20.4224330357143  C 9.93294270833333 20.9503348214286  13.10546875 21.2142857142857  16.5 21.2142857142857  C 19.89453125 21.2142857142857  23.0670572916667 20.9503348214286  26.017578125 20.4224330357143  C 28.9680989583333 19.89453125  31.2955729166667 19.1149553571429  33 18.0837053571429  L 33 21.2142857142857  C 33 22.0613839285714  32.2623697916667 22.8470982142857  30.787109375 23.5714285714286  C 29.3118489583333 24.2957589285714  27.306640625 24.8696986607143  24.771484375 25.2932477678571  C 22.236328125 25.716796875  19.4791666666667 25.9285714285714  16.5 25.9285714285714  C 13.5208333333333 25.9285714285714  10.763671875 25.716796875  8.228515625 25.2932477678571  C 5.693359375 24.8696986607143  3.68815104166667 24.2957589285714  2.212890625 23.5714285714286  C 0.737630208333333 22.8470982142857  0 22.0613839285714  0 21.2142857142857  L 0 18.0837053571429  C 1.70442708333333 19.1149553571429  4.03190104166667 19.89453125  6.982421875 20.4224330357143  Z M 8.228515625 0.635323660714284  C 10.763671875 0.211774553571428  13.5208333333333 0  16.5 0  C 19.4791666666667 0  22.236328125 0.211774553571428  24.771484375 0.635323660714284  C 27.306640625 1.05887276785714  29.3118489583333 1.6328125  30.787109375 2.35714285714286  C 32.2623697916667 3.08147321428571  33 3.8671875  33 4.71428571428572  L 33 7.07142857142857  C 33 7.91852678571428  32.2623697916667 8.70424107142857  30.787109375 9.42857142857143  C 29.3118489583333 10.1529017857143  27.306640625 10.7268415178571  24.771484375 11.150390625  C 22.236328125 11.5739397321429  19.4791666666667 11.7857142857143  16.5 11.7857142857143  C 13.5208333333333 11.7857142857143  10.763671875 11.5739397321429  8.228515625 11.150390625  C 5.693359375 10.7268415178571  3.68815104166667 10.1529017857143  2.212890625 9.42857142857143  C 0.737630208333333 8.70424107142857  0 7.91852678571428  0 7.07142857142857  L 0 4.71428571428572  C 0 3.8671875  0.737630208333333 3.08147321428571  2.212890625 2.35714285714286  C 3.68815104166667 1.6328125  5.693359375 1.05887276785714  8.228515625 0.635323660714284  Z " fill-rule="nonzero" fill="#000000" stroke="none" transform="matrix(1 0 0 1 9 180 )" />
  </g>
</svg>