<?xml version="1.0" encoding="utf-8"?>
<svg version="1.1" xmlns:xlink="http://www.w3.org/1999/xlink" width="36px" height="32px" xmlns="http://www.w3.org/2000/svg">
  <g transform="matrix(1 0 0 1 -9 -101 )">
    <path d="M 30.8252788104089 18.282151208106  C 30.8401486988848 18.3154065991167  30.8475836431227 18.3652896856326  30.8475836431227 18.4318004676539  L 30.8475836431227 30.4037412314887  C 30.8475836431227 30.8360613146272  30.7063197026022 31.210184463497  30.4237918215613 31.5261106780982  C 30.1412639405204 31.8420368926994  29.8066914498141 32  29.4200743494424 32  L 20.8550185873606 32  L 20.8550185873606 22.4224473889322  L 15.1449814126394 22.4224473889322  L 15.1449814126394 32  L 6.57992565055762 32  C 6.19330855018587 32  5.85873605947955 31.8420368926994  5.57620817843866 31.5261106780982  C 5.29368029739777 31.210184463497  5.15241635687732 30.8360613146272  5.15241635687732 30.4037412314887  L 5.15241635687732 18.4318004676539  C 5.15241635687732 18.4151727721486  5.15613382899628 18.3902312288906  5.1635687732342 18.35697583788  C 5.17100371747212 18.3237204468693  5.17472118959108 18.2987789036113  5.17472118959108 18.282151208106  L 18 6.45985970381917  L 30.8252788104089 18.282151208106  Z M 35.9776951672862 16.1247077162899  C 35.9925650557621 16.3491816056118  35.9405204460967 16.5445570277994  35.82156133829 16.7108339828527  L 34.4386617100372 18.5565081839439  C 34.3197026022305 18.7061574434918  34.1635687732342 18.7976097687711  33.9702602230483 18.8308651597818  L 33.9033457249071 18.8308651597818  C 33.7100371747212 18.8308651597818  33.5539033457249 18.7726682255131  33.4349442379182 18.6562743569758  L 18 4.26500389711613  L 2.56505576208178 18.6562743569758  C 2.38661710037175 18.7892959210184  2.20817843866171 18.8474928552871  2.02973977695167 18.8308651597818  C 1.8364312267658 18.7976097687711  1.68029739776952 18.7061574434918  1.56133828996283 18.5565081839439  L 0.178438661710037 16.7108339828527  C 0.0594795539033458 16.5445570277994  0.00743494423791827 16.3491816056118  0.0223048327137546 16.1247077162899  C 0.0371747211895912 15.900233826968  0.118959107806692 15.7214861002858  0.267657992565056 15.5884645362432  L 16.3048327137546 0.648480124707717  C 16.7806691449814 0.216160041569236  17.3457249070632 0  18 0  C 18.6542750929368 0  19.2193308550186 0.216160041569236  19.6951672862454 0.648480124707717  L 25.1375464684015 5.73655494933749  L 25.1375464684015 0.872954014029617  C 25.1375464684015 0.64016627695505  25.2044609665428 0.448947778643802  25.3382899628253 0.299298519095871  C 25.4721189591078 0.149649259547935  25.6431226765799 0.0748246297739676  25.8513011152416 0.0748246297739676  L 30.1338289962825 0.0748246297739676  C 30.3420074349442 0.0748246297739676  30.5130111524164 0.149649259547935  30.6468401486989 0.299298519095871  C 30.7806691449814 0.448947778643802  30.8475836431227 0.64016627695505  30.8475836431227 0.872954014029617  L 30.8475836431227 11.0491036632892  L 35.7323420074349 15.5884645362432  C 35.8810408921933 15.7214861002858  35.9628252788104 15.900233826968  35.9776951672862 16.1247077162899  Z " fill-rule="nonzero" fill="#0000bf" stroke="none" transform="matrix(1 0 0 1 9 101 )" />
  </g>
</svg>