<?xml version="1.0" encoding="utf-8"?>
<svg version="1.1" xmlns:xlink="http://www.w3.org/1999/xlink" width="26px" height="26px" xmlns="http://www.w3.org/2000/svg">
  <g transform="matrix(1 0 0 1 -281 -660 )">
    <path d="M 17.1809895833333 21.5143229166667  C 17.2825520833333 21.4127604166667  17.3333333333333 21.2829861111111  17.3333333333333 21.125  L 17.3333333333333 18.4166666666667  C 17.3333333333333 18.2586805555556  17.2825520833333 18.12890625  17.1809895833333 18.02734375  C 17.0794270833333 17.92578125  16.9496527777778 17.875  16.7916666666667 17.875  L 15.1666666666667 17.875  L 15.1666666666667 9.20833333333333  C 15.1666666666667 9.05034722222222  15.1158854166667 8.92057291666667  15.0143229166667 8.81901041666667  C 14.9127604166667 8.71744791666667  14.7829861111111 8.66666666666667  14.625 8.66666666666667  L 9.20833333333333 8.66666666666667  C 9.05034722222222 8.66666666666667  8.92057291666667 8.71744791666667  8.81901041666667 8.81901041666667  C 8.71744791666667 8.92057291666667  8.66666666666667 9.05034722222222  8.66666666666667 9.20833333333333  L 8.66666666666667 11.9166666666667  C 8.66666666666667 12.0746527777778  8.71744791666667 12.2044270833333  8.81901041666667 12.3059895833333  C 8.92057291666667 12.4075520833333  9.05034722222222 12.4583333333333  9.20833333333333 12.4583333333333  L 10.8333333333333 12.4583333333333  L 10.8333333333333 17.875  L 9.20833333333333 17.875  C 9.05034722222222 17.875  8.92057291666667 17.92578125  8.81901041666667 18.02734375  C 8.71744791666667 18.12890625  8.66666666666667 18.2586805555556  8.66666666666667 18.4166666666667  L 8.66666666666667 21.125  C 8.66666666666667 21.2829861111111  8.71744791666667 21.4127604166667  8.81901041666667 21.5143229166667  C 8.92057291666667 21.6158854166667  9.05034722222222 21.6666666666667  9.20833333333333 21.6666666666667  L 16.7916666666667 21.6666666666667  C 16.9496527777778 21.6666666666667  17.0794270833333 21.6158854166667  17.1809895833333 21.5143229166667  Z M 15.0143229166667 6.34765625  C 15.1158854166667 6.24609375  15.1666666666667 6.11631944444444  15.1666666666667 5.95833333333333  L 15.1666666666667 3.25  C 15.1666666666667 3.09201388888889  15.1158854166667 2.96223958333333  15.0143229166667 2.86067708333333  C 14.9127604166667 2.75911458333333  14.7829861111111 2.70833333333333  14.625 2.70833333333333  L 11.375 2.70833333333333  C 11.2170138888889 2.70833333333333  11.0872395833333 2.75911458333333  10.9856770833333 2.86067708333333  C 10.8841145833333 2.96223958333333  10.8333333333333 3.09201388888889  10.8333333333333 3.25  L 10.8333333333333 5.95833333333333  C 10.8333333333333 6.11631944444444  10.8841145833333 6.24609375  10.9856770833333 6.34765625  C 11.0872395833333 6.44921875  11.2170138888889 6.5  11.375 6.5  L 14.625 6.5  C 14.7829861111111 6.5  14.9127604166667 6.44921875  15.0143229166667 6.34765625  Z M 24.2565104166667 6.474609375  C 25.4188368055556 8.46636284722222  26 10.6414930555556  26 13  C 26 15.3585069444444  25.4188368055556 17.5336371527778  24.2565104166667 19.525390625  C 23.0941840277778 21.5171440972222  21.5171440972222 23.0941840277778  19.525390625 24.2565104166667  C 17.5336371527778 25.4188368055556  15.3585069444444 26  13 26  C 10.6414930555556 26  8.46636284722222 25.4188368055556  6.474609375 24.2565104166667  C 4.48285590277778 23.0941840277778  2.90581597222222 21.5171440972222  1.74348958333333 19.525390625  C 0.581163194444444 17.5336371527778  0 15.3585069444444  0 13  C 0 10.6414930555556  0.581163194444444 8.46636284722222  1.74348958333333 6.474609375  C 2.90581597222222 4.48285590277778  4.48285590277778 2.90581597222222  6.474609375 1.74348958333333  C 8.46636284722222 0.581163194444442  10.6414930555556 0  13 0  C 15.3585069444444 0  17.5336371527778 0.581163194444442  19.525390625 1.74348958333333  C 21.5171440972222 2.90581597222222  23.0941840277778 4.48285590277778  24.2565104166667 6.474609375  Z " fill-rule="nonzero" fill="#000000" stroke="none" transform="matrix(1 0 0 1 281 660 )" />
  </g>
</svg>