<?xml version="1.0" encoding="utf-8"?>
<svg version="1.1" xmlns:xlink="http://www.w3.org/1999/xlink" width="12px" height="11px" xmlns="http://www.w3.org/2000/svg">
  <g transform="matrix(1 0 0 1 -307 -263 )">
    <path d="M 9.36830357142857 6.48111979166667  C 9.40848214285714 6.52408854166667  9.42857142857143 6.57899305555555  9.42857142857143 6.64583333333333  L 9.42857142857143 8.9375  C 9.42857142857143 9.50564236111111  9.23995535714286 9.99142795138889  8.86272321428572 10.3948567708333  C 8.48549107142857 10.7982855902778  8.03125 11  7.5 11  L 1.92857142857143 11  C 1.39732142857143 11  0.943080357142857 10.7982855902778  0.565848214285714 10.3948567708333  C 0.188616071428571 9.99142795138889  0 9.50564236111111  0 8.9375  L 0 2.97916666666667  C 0 2.41102430555555  0.188616071428571 1.92523871527778  0.565848214285714 1.52180989583333  C 0.943080357142857 1.11838107638889  1.39732142857143 0.916666666666667  1.92857142857143 0.916666666666667  L 6.64285714285714 0.916666666666667  C 6.70535714285714 0.916666666666667  6.75669642857143 0.938151041666667  6.796875 0.981119791666667  C 6.83705357142857 1.02408854166667  6.85714285714286 1.07899305555555  6.85714285714286 1.14583333333333  L 6.85714285714286 1.60416666666667  C 6.85714285714286 1.67100694444444  6.83705357142857 1.72591145833333  6.796875 1.76888020833333  C 6.75669642857143 1.81184895833333  6.70535714285714 1.83333333333333  6.64285714285714 1.83333333333333  L 1.92857142857143 1.83333333333333  C 1.63392857142857 1.83333333333333  1.38169642857143 1.94552951388889  1.171875 2.169921875  C 0.962053571428572 2.39431423611111  0.857142857142857 2.6640625  0.857142857142857 2.97916666666667  L 0.857142857142857 8.9375  C 0.857142857142857 9.25260416666667  0.962053571428572 9.52235243055555  1.171875 9.74674479166667  C 1.38169642857143 9.97113715277778  1.63392857142857 10.0833333333333  1.92857142857143 10.0833333333333  L 7.5 10.0833333333333  C 7.79464285714286 10.0833333333333  8.046875 9.97113715277778  8.25669642857143 9.74674479166667  C 8.46651785714286 9.52235243055555  8.57142857142857 9.25260416666667  8.57142857142857 8.9375  L 8.57142857142857 6.64583333333333  C 8.57142857142857 6.57899305555555  8.59151785714286 6.52408854166667  8.63169642857143 6.48111979166667  C 8.671875 6.43815104166667  8.72321428571429 6.41666666666667  8.78571428571428 6.41666666666667  L 9.21428571428572 6.41666666666667  C 9.27678571428572 6.41666666666667  9.328125 6.43815104166667  9.36830357142857 6.48111979166667  Z M 11.8727678571429 0.136067708333333  C 11.9575892857143 0.226779513888887  12 0.334201388888887  12 0.458333333333333  L 12 4.125  C 12 4.24913194444444  11.9575892857143 4.35655381944444  11.8727678571429 4.447265625  C 11.7879464285714 4.53797743055556  11.6875 4.58333333333333  11.5714285714286 4.58333333333333  C 11.4553571428571 4.58333333333333  11.3549107142857 4.53797743055556  11.2700892857143 4.447265625  L 10.0915178571429 3.18684895833333  L 5.72544642857143 7.85611979166667  C 5.68080357142857 7.90386284722222  5.62946428571429 7.927734375  5.57142857142857 7.927734375  C 5.51339285714286 7.927734375  5.46205357142857 7.90386284722222  5.41741071428571 7.85611979166667  L 4.65401785714286 7.03971354166667  C 4.609375 6.99197048611111  4.58705357142857 6.93706597222222  4.58705357142857 6.875  C 4.58705357142857 6.81293402777778  4.609375 6.75802951388889  4.65401785714286 6.71028645833333  L 9.02008928571428 2.041015625  L 7.84151785714286 0.780598958333333  C 7.75669642857143 0.689887152777777  7.71428571428572 0.582465277777777  7.71428571428572 0.458333333333333  C 7.71428571428572 0.334201388888887  7.75669642857143 0.226779513888887  7.84151785714286 0.136067708333333  C 7.92633928571429 0.0453559027777785  8.02678571428572 0  8.14285714285714 0  L 11.5714285714286 0  C 11.6875 0  11.7879464285714 0.0453559027777785  11.8727678571429 0.136067708333333  Z " fill-rule="nonzero" fill="#000000" stroke="none" transform="matrix(1 0 0 1 307 263 )" />
  </g>
</svg>