<?xml version="1.0" encoding="utf-8"?>
<svg version="1.1" xmlns:xlink="http://www.w3.org/1999/xlink" width="25px" height="25px" xmlns="http://www.w3.org/2000/svg">
  <g transform="matrix(1 0 0 1 -51 -660 )">
    <path d="M 21.4064436183395 14.2829306313328  C 21.4167699297811 14.3089114055599  21.4219330855019 14.3478825669005  21.4219330855019 14.3998441153546  L 21.4219330855019 23.7529228371005  C 21.4219330855019 24.0906729020525  21.3238331268071 24.382956612107  21.1276332094176 24.6297739672642  C 20.9314332920281 24.8765913224214  20.6990912845931 25  20.4306071871128 25  L 14.4826517967782 25  L 14.4826517967782 17.5175370226033  L 10.5173482032218 17.5175370226033  L 10.5173482032218 25  L 4.56939281288724 25  C 4.30090871540686 25  4.06856670797191 24.8765913224214  3.8723667905824 24.6297739672642  C 3.6761668731929 24.382956612107  3.57806691449814 24.0906729020525  3.57806691449814 23.7529228371005  L 3.57806691449814 14.3998441153546  C 3.57806691449814 14.3868537282411  3.58064849235853 14.3673681475708  3.58581164807931 14.3413873733437  C 3.59097480380008 14.3154065991167  3.59355638166047 14.2959210184464  3.59355638166047 14.2829306313328  L 12.5 5.04676539360873  L 21.4064436183395 14.2829306313328  Z M 24.9845105328377 12.5974279033515  C 24.9948368442792 12.7727981293843  24.9586947542338 12.9254351779683  24.8760842627014 13.0553390491037  L 23.9157372986369 14.4972720187062  C 23.8331268071045 14.614185502728  23.7247005369682 14.6856326318524  23.590458488228 14.7116134060795  L 23.543990086741 14.7116134060795  C 23.4097480380008 14.7116134060795  23.3013217678645 14.6661470511821  23.2187112763321 14.5752143413874  L 12.5 3.33203429462198  L 1.78128872366791 14.5752143413874  C 1.65737298636927 14.6791374382957  1.53345724907063 14.724603793193  1.40954151177199 14.7116134060795  C 1.27529946303181 14.6856326318524  1.1668731928955 14.614185502728  1.08426270136307 14.4972720187062  L 0.123915737298637 13.0553390491037  C 0.0413052457662123 12.9254351779683  0.00516315572077658 12.7727981293843  0.0154894671623296 12.5974279033515  C 0.0258157786038828 12.4220576773188  0.0826104915324247 12.2824110158483  0.185873605947955 12.17848791894  L 11.3228004956629 0.506625097427904  C 11.6532424617926 0.168875032475965  12.0456422965717 0  12.5 0  C 12.9543577034283 0  13.3467575382074 0.168875032475965  13.6771995043371 0.506625097427904  L 17.4566294919455 4.48168355416991  L 17.4566294919455 0.681995323460638  C 17.4566294919455 0.500129903871133  17.5030978934325 0.350740452065471  17.5960346964064 0.233826968043649  C 17.6889714993804 0.116913484021824  17.8077240809583 0.0584567420109122  17.95229244114 0.0584567420109122  L 20.9262701363073 0.0584567420109122  C 21.0708384964891 0.0584567420109122  21.1895910780669 0.116913484021824  21.2825278810409 0.233826968043649  C 21.3754646840149 0.350740452065471  21.4219330855019 0.500129903871133  21.4219330855019 0.681995323460638  L 21.4219330855019 8.63211223694466  L 24.814126394052 12.17848791894  C 24.9173895084676 12.2824110158483  24.9741842213961 12.4220576773188  24.9845105328377 12.5974279033515  Z " fill-rule="nonzero" fill="#027db4" stroke="none" transform="matrix(1 0 0 1 51 660 )" />
  </g>
</svg>