<?xml version="1.0" encoding="utf-8"?>
<svg version="1.1" xmlns:xlink="http://www.w3.org/1999/xlink" width="87px" height="22px" xmlns="http://www.w3.org/2000/svg">
  <defs>
    <mask fill="white" id="clip2">
      <path d="M 0 17  L 0 5  C 0 2.2  2.19999999999999 0  5 0  L 23.1851851851829 0  L 82 0  C 84.8 0  87 2.2  87 5  L 87 17  C 87 19.8  84.8 22  82 22  L 44.1728395061706 22  L 40.4691358024669 22  L 5 22  C 2.19999999999999 22  0 19.8  0 17  Z " fill-rule="evenodd" />
    </mask>
  </defs>
  <g transform="matrix(1 0 0 1 -262 -17 )">
    <path d="M 0 17  L 0 5  C 0 2.2  2.19999999999999 0  5 0  L 23.1851851851829 0  L 82 0  C 84.8 0  87 2.2  87 5  L 87 17  C 87 19.8  84.8 22  82 22  L 44.1728395061706 22  L 40.4691358024669 22  L 5 22  C 2.19999999999999 22  0 19.8  0 17  Z " fill-rule="nonzero" fill="#7f7f7f" stroke="none" transform="matrix(1 0 0 1 262 17 )" />
    <path d="M 0 17  L 0 5  C 0 2.2  2.19999999999999 0  5 0  L 23.1851851851829 0  L 82 0  C 84.8 0  87 2.2  87 5  L 87 17  C 87 19.8  84.8 22  82 22  L 44.1728395061706 22  L 40.4691358024669 22  L 5 22  C 2.19999999999999 22  0 19.8  0 17  Z " stroke-width="2" stroke="#797979" fill="none" transform="matrix(1 0 0 1 262 17 )" mask="url(#clip2)" />
  </g>
</svg>