<?xml version="1.0" encoding="utf-8"?>
<svg version="1.1" xmlns:xlink="http://www.w3.org/1999/xlink" width="36px" height="32px" xmlns="http://www.w3.org/2000/svg">
  <g transform="matrix(1 0 0 1 -6 -354 )">
    <path d="M 23.7890625 26.4791666666667  C 23.9296875 26.3541666666667  24 26.1944444444444  24 26  L 24 22.6666666666667  C 24 22.4722222222222  23.9296875 22.3125  23.7890625 22.1875  C 23.6484375 22.0625  23.46875 22  23.25 22  L 21 22  L 21 11.3333333333333  C 21 11.1388888888889  20.9296875 10.9791666666667  20.7890625 10.8541666666667  C 20.6484375 10.7291666666667  20.46875 10.6666666666667  20.25 10.6666666666667  L 12.75 10.6666666666667  C 12.53125 10.6666666666667  12.3515625 10.7291666666667  12.2109375 10.8541666666667  C 12.0703125 10.9791666666667  12 11.1388888888889  12 11.3333333333333  L 12 14.6666666666667  C 12 14.8611111111111  12.0703125 15.0208333333333  12.2109375 15.1458333333333  C 12.3515625 15.2708333333333  12.53125 15.3333333333333  12.75 15.3333333333333  L 15 15.3333333333333  L 15 22  L 12.75 22  C 12.53125 22  12.3515625 22.0625  12.2109375 22.1875  C 12.0703125 22.3125  12 22.4722222222222  12 22.6666666666667  L 12 26  C 12 26.1944444444444  12.0703125 26.3541666666667  12.2109375 26.4791666666667  C 12.3515625 26.6041666666667  12.53125 26.6666666666667  12.75 26.6666666666667  L 23.25 26.6666666666667  C 23.46875 26.6666666666667  23.6484375 26.6041666666667  23.7890625 26.4791666666667  Z M 20.7890625 7.8125  C 20.9296875 7.6875  21 7.52777777777778  21 7.33333333333333  L 21 4  C 21 3.80555555555555  20.9296875 3.64583333333333  20.7890625 3.52083333333333  C 20.6484375 3.39583333333333  20.46875 3.33333333333333  20.25 3.33333333333333  L 15.75 3.33333333333333  C 15.53125 3.33333333333333  15.3515625 3.39583333333333  15.2109375 3.52083333333333  C 15.0703125 3.64583333333333  15 3.80555555555555  15 4  L 15 7.33333333333333  C 15 7.52777777777778  15.0703125 7.6875  15.2109375 7.8125  C 15.3515625 7.9375  15.53125 8  15.75 8  L 20.25 8  C 20.46875 8  20.6484375 7.9375  20.7890625 7.8125  Z M 33.5859375 7.96875  C 35.1953125 10.4201388888889  36 13.0972222222222  36 16  C 36 18.9027777777778  35.1953125 21.5798611111111  33.5859375 24.03125  C 31.9765625 26.4826388888889  29.79296875 28.4236111111111  27.03515625 29.8541666666667  C 24.27734375 31.2847222222222  21.265625 32  18 32  C 14.734375 32  11.72265625 31.2847222222222  8.96484375 29.8541666666667  C 6.20703125 28.4236111111111  4.0234375 26.4826388888889  2.4140625 24.03125  C 0.8046875 21.5798611111111  0 18.9027777777778  0 16  C 0 13.0972222222222  0.8046875 10.4201388888889  2.4140625 7.96875  C 4.0234375 5.51736111111111  6.20703125 3.57638888888889  8.96484375 2.14583333333333  C 11.72265625 0.715277777777775  14.734375 0  18 0  C 21.265625 0  24.27734375 0.715277777777775  27.03515625 2.14583333333333  C 29.79296875 3.57638888888889  31.9765625 5.51736111111111  33.5859375 7.96875  Z " fill-rule="nonzero" fill="#0000ff" stroke="none" transform="matrix(1 0 0 1 6 354 )" />
  </g>
</svg>